<?xml version="1.0" encoding="UTF-8"?>
<svg width="14px" height="17px" viewBox="0 0 14 17" version="1.1" xmlns="http://www.w3.org/2000/svg" xmlns:xlink="http://www.w3.org/1999/xlink">
    <!-- Generator: Sketch 41.2 (35397) - http://www.bohemiancoding.com/sketch -->
    <title>Page 1</title>
    <desc>Created with Sketch.</desc>
    <defs>
        <polygon id="path-1" points="14 8.8051 14 17 0 17 0 8.8051 0 0.6102 14 0.6102 14 8.8051"></polygon>
    </defs>
    <g id="Page-1" stroke="none" stroke-width="1" fill="none" fill-rule="evenodd" opacity="0.31">
        <g id="后台登录" transform="translate(-1266.000000, -381.000000)">
            <g id="Page-1" transform="translate(1266.000000, 380.000000)">
                <g id="Group-3" transform="translate(0.000000, 0.389600)">
                    <mask id="mask-2" fill="white">
                        <use xlink:href="#path-1"></use>
                    </mask>
                    <g id="Clip-2"></g>
                    <path d="M13,15.5332 C13,15.7912 12.791,16.0002 12.533,16.0002 L1.468,16.0002 C1.21,16.0002 1,15.7912 1,15.5332 L1,8.4682 C1,8.2102 1.21,8.0002 1.468,8.0002 L12.533,8.0002 C12.791,8.0002 13,8.2102 13,8.4682 L13,15.5332 Z M12.533,7.0002 L3.665,7.0002 L3.665,4.7972 C3.665,3.0402 5.161,1.6102 7,1.6102 C8.839,1.6102 10.335,3.0402 10.335,4.7972 L10.335,5.4442 C10.335,5.7202 10.559,5.9442 10.835,5.9442 C11.111,5.9442 11.335,5.7202 11.335,5.4442 L11.335,4.7972 C11.335,2.4882 9.391,0.6102 7,0.6102 C4.609,0.6102 2.665,2.4882 2.665,4.7972 L2.665,7.0002 L1.468,7.0002 C0.658,7.0002 0,7.6582 0,8.4682 L0,15.5332 C0,16.3422 0.658,17.0002 1.468,17.0002 L12.533,17.0002 C13.342,17.0002 14,16.3422 14,15.5332 L14,8.4682 C14,7.6582 13.342,7.0002 12.533,7.0002 L12.533,7.0002 Z" id="Fill-1" fill="#000000" mask="url(#mask-2)"></path>
                </g>
                <path d="M7.2031,10.8935 C6.5861,10.8935 6.0861,11.3935 6.0861,12.0105 C6.0861,12.4455 6.3411,12.8115 6.7031,12.9965 L6.7031,14.5415 C6.7031,14.8185 6.9271,15.0415 7.2031,15.0415 C7.4791,15.0415 7.7031,14.8185 7.7031,14.5415 L7.7031,12.9975 C8.0651,12.8115 8.3211,12.4455 8.3211,12.0105 C8.3211,11.3935 7.8201,10.8935 7.2031,10.8935" id="Fill-4" fill="#000000"></path>
            </g>
        </g>
    </g>
</svg>