<?xml version="1.0" encoding="UTF-8"?>
<svg width="14px" height="16px" viewBox="0 0 14 16" version="1.1" xmlns="http://www.w3.org/2000/svg" xmlns:xlink="http://www.w3.org/1999/xlink">
    <!-- Generator: Sketch 41.2 (35397) - http://www.bohemiancoding.com/sketch -->
    <title>Fill 1</title>
    <desc>Created with Sketch.</desc>
    <defs></defs>
    <g id="Page-1" stroke="none" stroke-width="1" fill="none" fill-rule="evenodd" opacity="0.31">
        <g id="后台登录" transform="translate(-1266.000000, -306.000000)" fill="#000000">
            <path d="M1268.83124,311 C1268.83124,308.794 1270.62524,307 1272.83124,307 C1275.03724,307 1276.83124,308.794 1276.83124,311 C1276.83124,313.206 1275.03724,315 1272.83124,315 C1270.62524,315 1268.83124,313.206 1268.83124,311 M1279.65224,320.422 C1279.10024,318.023 1277.37824,316.169 1275.16524,315.395 C1276.74224,314.553 1277.83124,312.91 1277.83124,311 C1277.83124,308.243 1275.58824,306 1272.83124,306 C1270.07424,306 1267.83124,308.243 1267.83124,311 C1267.83124,312.91 1268.91924,314.553 1270.49824,315.395 C1268.28824,316.168 1266.56824,318.018 1266.01324,320.41 C1265.95024,320.68 1266.11824,320.948 1266.38624,321.011 C1266.65224,321.07 1266.92424,320.905 1266.98624,320.637 C1267.62124,317.906 1270.02424,316 1272.83124,316 C1275.64324,316 1278.04824,317.911 1278.67824,320.646 C1278.73124,320.878 1278.93624,321.034 1279.16524,321.034 C1279.20224,321.034 1279.23924,321.03 1279.27724,321.021 C1279.54624,320.959 1279.71424,320.691 1279.65224,320.422" id="Fill-1"></path>
        </g>
    </g>
</svg>