<?xml version="1.0" encoding="UTF-8"?>
<svg width="90px" height="52px" viewBox="0 0 90 52" version="1.1" xmlns="http://www.w3.org/2000/svg" xmlns:xlink="http://www.w3.org/1999/xlink">
    <!-- Generator: Sketch 41.2 (35397) - http://www.bohemiancoding.com/sketch -->
    <title>Group 2</title>
    <desc>Created with Sketch.</desc>
    <defs></defs>
    <g id="Page-1" stroke="none" stroke-width="1" fill="none" fill-rule="evenodd">
        <g id="后台登录" transform="translate(-120.000000, -13.000000)">
            <g id="Group-2" transform="translate(120.000000, 13.000000)">
                <g id="LOGO原色">
                    <path d="M36.0063717,27.038 L39.5534071,27.038 L39.5534071,20.1852 L36.0063717,20.1852 L36.0063717,27.038 Z M30.605177,27.038 L34.1518142,27.038 L34.1518142,20.1852 L30.605177,20.1852 L30.605177,27.038 Z M36.0063717,19.11 L36.0063717,18.5732 L34.1518142,18.5732 L34.1518142,19.11 L28.7510177,19.11 L28.7510177,20.0868 L28.7510177,20.1852 L28.7510177,27.038 L28.7510177,27.1728 L28.7510177,28.1132 L34.1518142,28.1132 L34.1518142,29.2028 L36.0063717,29.2028 L36.0063717,28.1132 L40.3514602,28.1132 L40.3514602,28.1128 C40.9348673,28.1104 41.4075664,27.6348 41.4075664,27.048 L41.4075664,27.038 L41.4075664,20.1852 L41.4075664,20.0868 L41.4075664,19.11 L36.0063717,19.11 Z" id="Fill-1" fill="#3E3A39"></path>
                    <path d="M25.0387965,21.75532 L24.3665841,21.75532 L17.5795487,21.75532 L16.9041504,21.75532 L16.9041504,21.75572 C16.3207434,21.75812 15.8480442,22.23372 15.8480442,22.82052 L15.8480442,27.04572 L17.5795487,27.04572 L17.5795487,22.81612 L24.3665841,22.81612 L24.3665841,27.04572 L26.0980885,27.04572 L26.0980885,22.80892 C26.0917168,22.22612 25.6206106,21.75532 25.0387965,21.75532" id="Fill-3" fill="#3E3A39"></path>
                    <path d="M25.6105354,21.62904 L26.0991637,21.62904 L27.3416416,21.62904 L27.3416416,20.59744 L27.3416416,20.59344 L27.3412434,20.59344 C27.3392522,20.02064 26.8860664,19.55704 26.319385,19.53664 L25.3859336,19.53664 L25.6105354,18.47464 L23.7356681,18.47464 L23.5110664,19.53664 L23.1351372,19.53664 L23.1351372,19.53824 L21.8687655,19.53824 L21.8687655,18.47264 L20.1368628,18.47264 L20.1368628,19.53824 L18.8123496,19.53824 L18.6960664,19.53824 L18.4005796,19.53824 L18.1759779,18.47464 L16.3011106,18.47464 L16.5261106,19.53824 L16.3011106,19.53824 L15.6113761,19.53824 C15.0347389,19.54824 14.5700044,20.01944 14.5700044,20.60144 L14.5700044,21.62904 L15.8479248,21.62904 L16.3011106,21.62904 L16.3011106,20.59904 L18.6960664,20.59904 L18.8123496,20.59904 L20.1368628,20.59904 L21.8687655,20.59904 L23.1896947,20.59904 L23.1896947,20.59744 L23.2872611,20.59744 L23.2868628,20.59904 L25.1613319,20.59904 L25.1621283,20.59744 L25.6105354,20.59744 L25.6105354,21.62904 Z" id="Fill-4" fill="#3E3A39"></path>
                    <path d="M22.9505575,28.14192 L22.9505575,25.52312 L21.4567965,25.52312 C21.715646,24.58792 21.6598938,23.85192 21.6598938,23.85192 L19.9805575,23.85192 L19.9805575,24.01672 C19.9809558,24.03472 19.9809558,24.05432 19.9805575,24.07472 L19.9805575,24.15032 L19.9793628,24.15032 C19.9638319,24.74552 19.7981681,26.10552 18.6831239,27.04712 C17.9416195,27.67352 16.9619735,28.01512 16.1332566,28.07032 L15.4706018,28.10072 L14.7175487,28.11072 L14.7175487,29.15432 C15.4801593,29.23552 18.255823,29.37992 19.8981239,28.00032 C20.5468407,27.45552 20.9582124,26.81552 21.2194513,26.20312 L21.2194513,28.14192 L21.2198496,28.14192 C21.2218407,28.72792 21.6953363,29.20272 22.2795398,29.20272 L22.5033451,29.20272 L22.9505575,29.20272 L27.3418407,29.20272 L27.3418407,28.14192 L22.9505575,28.14192 Z" id="Fill-5" fill="#3E3A39"></path>
                    <polygon id="Fill-6" fill="#3E3A39" points="0.402212389 29.1728 1.75938053 29.1728 1.75938053 22.9316 0.402212389 22.9316"></polygon>
                    <path d="M3.17170354,20.91068 L0.400818584,20.91068 L0.400818584,21.97148 L2.50068584,21.97148 L2.50665929,29.17268 L4.23816372,29.17268 L4.23219027,22.26188 L4.23219027,21.97148 L4.23179204,21.97148 C4.22940265,21.38508 3.75590708,20.91068 3.17170354,20.91068" id="Fill-7" fill="#3E3A39"></path>
                    <path d="M11.188792,28.11072 L11.188792,25.49872 L12.9202965,25.49872 L12.9202965,19.64872 L12.9210929,19.64872 L12.9210929,19.64832 L12.9206947,19.64832 C12.9183053,19.06312 12.4468009,18.58952 11.8641903,18.58792 L6.7134823,18.58792 L6.7134823,18.58752 L4.98197788,18.58752 L4.98197788,25.49872 L6.7134823,25.49872 L6.7134823,19.64872 L11.188792,19.64872 L11.188792,24.43072 L9.58312832,24.43072 L9.58312832,20.91032 L7.89861504,20.91032 L7.89861504,24.10712 C7.89861504,24.10712 7.88865929,24.64312 7.74569469,25.11712 C7.59317257,25.62152 7.3235708,26.08192 7.27618142,26.17152 C6.24516372,28.10352 4.37188938,29.17152 4.37188938,29.17152 L6.85007522,29.17152 C6.85007522,29.17152 8.63215487,27.88272 9.45768584,25.18552 L9.45768584,28.11072 L9.45808407,28.11072 C9.46007522,28.69672 9.9335708,29.17152 10.5177743,29.17152 L11.188792,29.17152 L13.1719779,29.17152 L13.1719779,28.11072 L11.188792,28.11072 Z" id="Fill-8" fill="#3E3A39"></path>
                    <path d="M3.17170354,18.58772 L0.398030973,18.58772 L0.398030973,19.95092 L4.23219027,19.95092 L4.23219027,19.64852 L4.23179204,19.64852 C4.22940265,19.06212 3.75590708,18.58772 3.17170354,18.58772" id="Fill-9" fill="#3E3A39"></path>
                    <polygon id="Fill-10" fill="#3E3A39" points="45.1375088 26.31572 45.1375088 27.39092 52.0838363 27.39092 53.1335708 27.39092 53.1542788 27.39092 53.1542788 25.35772 52.0838363 25.35772 52.0838363 26.31572 50.0624204 26.31572 50.0624204 24.37732 52.9018009 24.37732 52.9018009 23.30212 50.0624204 23.30212 50.0624204 21.36372 52.9018009 21.36372 52.9018009 20.28812 45.3692788 20.28812 45.3692788 21.36372 48.2082611 21.36372 48.2082611 23.30212 45.3692788 23.30212 45.3692788 24.37732 48.2082611 24.37732 48.2082611 26.31572"></polygon>
                    <path d="M44.5726991,28.1132 L53.7116814,28.1132 L53.7116814,19.6484 L44.5726991,19.6484 L44.5726991,28.1132 Z M53.7116814,18.5732 L44.5723009,18.5732 L42.8173009,18.5732 L42.8173009,19.6484 L42.8173009,28.1132 L42.8173009,28.5404 L42.8173009,29.1884 L54.4022124,29.1884 L54.4022124,29.188 C54.9860177,29.1856 55.4583186,28.71 55.4583186,28.1236 L55.4583186,18.5732 L53.7116814,18.5732 Z" id="Fill-11" fill="#3E3A39"></path>
                    <polygon id="Fill-12" fill="#93252A" points="69.5775265 15.3546 76.1319956 8.207 89.6399602 8.207 89.6399602 21.7754 78.6058009 24.0594 69.5775265 24.0594"></polygon>
                    <polygon id="Fill-13" fill="#DF2422" points="76.1320354 21.7704 89.6352212 21.7704 89.6352212 8.2072 76.1320354 8.2072"></polygon>
                    <polygon id="Fill-14" fill="#93252A" points="61.1565531 15.16004 61.1565531 9.31044 58.5266416 4e-05 51.3875708 4e-05 51.3875708 10.88724 57.1698717 15.16004"></polygon>
                    <polygon id="Fill-15" fill="#DF2422" points="51.3880088 10.8848 58.5234956 10.8848 58.5234956 0.0004 51.3880088 0.0004"></polygon>
                    <polygon id="Fill-16" fill="#93252A" points="70.0572743 43.50924 68.7837345 38.87844 62.3467434 38.87844 61.6203717 43.50924 61.6203717 51.98364 70.0572743 51.98364"></polygon>
                    <polygon id="Fill-17" fill="#DF2422" points="61.6189381 51.9836 70.0586283 51.9836 70.0586283 43.506 61.6189381 43.506"></polygon>
                    <polygon id="Fill-18" fill="#93252A" points="54.1385044 32.7106 40.412708 36.2238 40.412708 44.6978 48.8492124 44.6978 57.6266018 37.7042 57.6266018 32.7106"></polygon>
                    <polygon id="Fill-19" fill="#DF2422" points="40.4123894 44.7008 48.8520796 44.7008 48.8520796 36.2236 40.4123894 36.2236"></polygon>
                    <path d="M72.2431593,33.2384 L79.9258142,41.9264 L85.2099292,32.5524 L74.094531,30.0748 C72.2766106,29.67 71.0066549,31.84 72.2431593,33.2384" id="Fill-20" fill="#93252A"></path>
                    <path d="M89.2985973,36.6242 C88.5471372,33.6274 85.5193938,31.8106 82.535854,32.5654 C79.5527124,33.3206 77.7435531,36.3614 78.4954115,39.3582 C79.2468717,42.3546 82.2750133,44.1718 85.2581549,43.4166 C88.2412965,42.6618 90.0504558,39.6206 89.2985973,36.6242" id="Fill-21" fill="#DF2422"></path>
                </g>
            </g>
        </g>
    </g>
</svg>